<svg xmlns="http://www.w3.org/2000/svg" width="72" height="72" viewBox="0 261.641 72 72"><circle fill="#2DAAE1" cx="35.875" cy="297.516" r="35.875"/><path fill="#FFF" d="M58.877 283.245a18.902 18.902 0 0 1-5.42 1.487 9.467 9.467 0 0 0 4.15-5.221 18.826 18.826 0 0 1-5.994 2.29 9.425 9.425 0 0 0-6.889-2.979 9.438 9.438 0 0 0-9.437 9.438c0 .739.083 1.459.244 2.152-7.844-.395-14.798-4.152-19.452-9.861a9.39 9.39 0 0 0-1.278 4.745 9.431 9.431 0 0 0 4.198 7.854 9.389 9.389 0 0 1-4.275-1.18v.12c0 4.573 3.253 8.386 7.57 9.252a9.542 9.542 0 0 1-4.263.165 9.449 9.449 0 0 0 8.815 6.554 18.93 18.93 0 0 1-11.72 4.041c-.761 0-1.514-.045-2.253-.134a26.711 26.711 0 0 0 14.467 4.241c17.359 0 26.852-14.38 26.852-26.852 0-.409-.009-.815-.029-1.22a19.23 19.23 0 0 0 4.714-4.892z"/></svg>